<?xml version="1.0" encoding="UTF-8"?><svg xmlns="http://www.w3.org/2000/svg" xmlns:xlink="http://www.w3.org/1999/xlink" height="1093.7" preserveAspectRatio="xMidYMid meet" version="1.0" viewBox="311.3 185.1 800.1 1093.7" width="800.1" zoomAndPan="magnify"><g><g><g id="change1_15"><path d="M607.192,1272.282c-28.838-47.592-28.861-105.606-25.34-159.389 c3.992-60.982,16.396-120.465,34.702-178.722c36.751-116.962,95.86-224.715,148.928-334.694 c34.056-70.578,65.46-142.845,85.553-218.773c1.009-3.813-4.884-5.429-5.891-1.624 c-30.979,117.067-88.604,224.212-141.689,332.276c-54.076,110.081-104.257,224.348-122.195,346.618 c-5.403,36.83-8.096,74.764-6.806,111.987c1.269,36.614,8.267,73.72,27.465,105.402 C603.955,1278.728,609.239,1275.66,607.192,1272.282L607.192,1272.282z" fill="#819C79"/></g></g><g><g id="change1_1"><path d="M577.079,1140.638c3.939,0,3.939-6.109,0-6.109S573.14,1140.638,577.079,1140.638L577.079,1140.638z" fill="#819C79"/></g></g><g><g id="change1_24"><path d="M846.425,378.697c-7.077-8.366-7.077-25.097-7.077-35.056c-0.417-18.325,4.995-35.455,12.073-52.186 c7.909-20.714,18.733-40.633,30.806-59.356c8.742-14.341,16.652-29.479,27.059-42.625c1.249,41.829-7.076,84.454-24.561,123.095 c-10.824,23.503-24.146,46.608-34.138,70.112" fill="#819C79"/></g><g id="change1_13"><path d="M848.584,376.537c-8.026-10.179-6.646-27.964-6.048-40.165c0.876-17.858,7.857-34.666,14.572-50.981 c6.984-16.971,15.99-33.109,25.755-48.62c9.485-15.066,17.591-31.062,28.582-45.138c-1.738-0.72-3.477-1.44-5.215-2.16 c0.876,32.947-4.043,65.681-14.477,96.94c-11.055,33.119-30.094,62.741-43.805,94.725c-1.533,3.579,3.727,6.694,5.275,3.083 c13.692-31.942,32.367-61.555,43.833-94.466c11.18-32.087,16.184-66.348,15.282-100.282c-0.064-2.395-3.467-4.398-5.215-2.16 c-11.701,14.987-20.426,31.905-30.526,47.949c-10.397,16.514-19.479,33.831-26.778,51.935 c-7.128,17.682-13.385,35.314-13.549,54.614c-0.111,12.966-0.443,28.345,7.994,39.044 C846.703,383.948,850.995,379.594,848.584,376.537L848.584,376.537z" fill="#819C79"/></g></g><g><g id="change1_18"><path d="M850.587,383.875c-2.913,3.585-5.411,7.569-6.66,11.951" fill="#819C79"/></g><g id="change1_29"><path d="M848.428,381.716c-3.231,4.038-5.936,8.315-7.446,13.299c-1.146,3.78,4.751,5.383,5.891,1.624 c1.189-3.922,3.324-7.417,5.874-10.604C855.182,382.992,850.889,378.64,848.428,381.716L848.428,381.716z" fill="#819C79"/></g></g><g><g id="change1_6"><path d="M836.434,434.07c7.493-6.374,17.485-11.154,24.978-17.528c5.827-4.78,7.494-10.358,12.489-16.731 c14.986-19.918,35.802-35.853,56.616-50.991c41.63-30.275,91.586-48.601,135.715-75.689 c-24.146,19.122-37.468,48.601-56.618,71.706c-21.647,24.699-44.127,43.023-75.766,54.177 c-19.982,7.17-41.631,10.358-61.613,16.732c-16.651,5.577-27.476,19.121-42.462,25.495" fill="#819C79"/></g><g id="change1_26"><path d="M838.594,436.229c8.697-7.172,19.373-11.775,27.398-19.791c3.489-3.485,5.763-8.123,8.449-12.202 c3.308-5.023,7.433-9.599,11.496-14.017c16.271-17.683,36.3-32.454,56.206-45.772c39.758-26.6,84.868-43.788,125.63-68.681 c-1.234-1.599-2.468-3.198-3.701-4.797c-18.902,15.223-31.322,36.295-44.91,56.015c-13.974,20.28-31.475,38.394-51.998,52.118 c-22.186,14.836-47.325,21.396-72.957,27.545c-12.442,2.985-24.993,5.796-36.04,12.493c-10.22,6.194-18.914,14.577-29.937,19.461 c-3.595,1.593-0.483,6.855,3.084,5.274c10.516-4.66,19.098-12.412,28.651-18.651c11.778-7.692,25.939-10.318,39.428-13.54 c25.558-6.103,50.06-13.403,72.104-28.145c19.592-13.101,36.558-30.48,50.224-49.598c14.571-20.383,26.857-42.698,46.669-58.654 c2.74-2.207-0.793-6.572-3.701-4.797c-41.273,25.206-86.822,42.717-127.088,69.656c-19.43,13-38.609,27.594-54.808,44.5 c-3.722,3.884-7.238,7.989-10.5,12.267c-3.439,4.512-6.063,9.594-9.581,14.028c-7.173,9.041-19.61,13.685-28.439,20.965 C831.232,434.418,835.579,438.714,838.594,436.229L838.594,436.229z" fill="#819C79"/></g></g><g><g id="change1_21"><path d="M806.57,501.113c48.292-13.545,98.134-50.313,144.761-67.043c49.123-17.528,104.907-19.918,155.695-31.869 c-26.643,10.357-47.458,31.869-74.101,43.023c-27.477,11.951-55.785,19.918-84.926,25.496 c-20.814,3.983-41.63,8.764-62.444,13.544c-15.82,3.984-32.077,2.29-46.231,4.68" fill="#819C79"/></g><g id="change1_22"><path d="M807.382,504.059c49.977-14.27,92.096-46.689,140.239-65.363 c51.131-19.833,107.215-21.203,160.217-33.549c-0.541-1.963-1.082-3.927-1.623-5.891c-19.816,7.894-36.434,21.239-54.352,32.49 c-20.395,12.806-43.853,20.677-66.906,27.203c-24.232,6.86-49.158,10.888-73.722,16.347c-12.73,2.83-25.525,6.652-38.503,8.087 c-11.389,1.26-22.877,0.833-34.22,2.615c-3.883,0.61-2.229,6.496,1.623,5.891c11.382-1.789,22.988-1.334,34.429-2.6 c12.266-1.357,24.378-4.985,36.402-7.681c24.593-5.513,49.513-9.624,73.838-16.275c22.554-6.167,45.632-13.904,65.898-25.737 c19.218-11.22,36.28-26.142,57.135-34.45c3.588-1.429,2.297-6.804-1.623-5.891c-52.587,12.25-107.751,14.039-158.708,32.976 c-48.952,18.191-91.243,51.517-141.748,65.937C801.978,499.248,803.586,505.142,807.382,504.059L807.382,504.059z" fill="#819C79"/></g></g><g><g id="change1_31"><path d="M784.811,547.065c-1.701-19.121-19.284-38.103-28.36-50.851c-11.345-15.934-23.256-31.869-31.196-51.787 c-17.017-40.633-31.764-89.234-55.02-124.29c38.003,23.104,70.901,74.892,91.889,123.493c7.939,17.529,8.508,35.853,12.478,54.974 c3.403,15.139,8.509,27.09,10.21,43.023" fill="#819C79"/></g><g id="change1_19"><path d="M787.331,547.065c-2.155-19.59-15.944-34.933-27.244-50.114c-13.512-18.153-25.662-36.755-34.284-57.741 c-16.618-40.451-29.181-83.511-53.392-120.345c-1.149,1.15-2.3,2.299-3.449,3.449c34.292,21.144,58.058,57.521,76.543,92.399 c4.97,9.376,9.527,18.968,13.788,28.685c4.648,10.598,7.139,21.586,9,32.967c1.816,11.099,3.445,22.108,6.442,32.969 c2.952,10.699,6.271,21.223,7.555,32.294c0.369,3.19,5.415,3.226,5.041,0c-1.206-10.406-3.938-20.373-6.823-30.416 c-3.262-11.355-5.242-22.797-7.075-34.453c-1.752-11.136-3.849-22.375-8.41-32.755c-4.505-10.255-9.209-20.391-14.375-30.333 c-18.808-36.195-43.735-73.88-79.141-95.71c-2.107-1.299-4.85,1.318-3.449,3.449c23.656,35.99,36.207,77.999,52.26,117.612 c8.221,20.287,19.315,37.974,32.007,55.732c11.328,15.852,27.736,32.045,29.966,52.311 C782.642,550.261,787.687,550.295,787.331,547.065L787.331,547.065z" fill="#819C79"/></g></g><g><g id="change1_2"><path d="M745.198,630.47c2.397-22.825-10.364-42.096-24.154-54.223c-17.388-15.693-32.975-31.386-46.166-51.358 c-14.388-19.972-14.988-40.659-20.983-64.911c-4.796-19.259-10.792-38.519-16.788-57.778c7.196,4.28,13.19,17.119,18.586,24.252 c8.394,10.7,17.387,21.399,25.182,32.812c14.988,22.827,26.979,43.513,38.971,68.478c13.189,27.819,29.698,73.272,24.303,106.085" fill="#819C79"/></g><g id="change1_17"><path d="M747.65,630.47c1.738-19.462-6.716-37.31-19.898-51.208c-7.114-7.5-15.242-14.074-22.544-21.41 c-8.357-8.397-16.148-17.347-23.154-26.903c-6.42-8.756-12.047-17.702-15.649-27.995c-3.446-9.85-5.186-20.243-7.235-30.444 c-4.838-24.073-12.408-47.546-19.697-70.962c-1.201,0.923-2.402,1.846-3.603,2.77c7.443,4.837,11.459,14.237,16.285,21.391 c6.73,9.978,15.103,18.935,22.243,28.634c13.727,18.644,25.311,39.27,35.946,59.799c9.49,18.318,17.688,37.193,23.805,56.914 c6.124,19.744,10.835,41.41,7.635,62.119c-0.478,3.093,4.248,4.422,4.73,1.304c3.111-20.14-0.767-40.712-6.263-60.101 c-5.848-20.633-14.361-40.384-24.023-59.489c-11.266-22.276-23.9-44.42-38.714-64.541c-7.291-9.903-15.839-19.013-22.575-29.297 c-4.813-7.348-9.012-16.041-16.594-20.968c-1.798-1.168-4.229,0.755-3.603,2.77c7.127,22.896,14.51,45.842,19.369,69.351 c2.018,9.762,3.733,19.582,6.617,29.139c3.07,10.177,8.083,19.009,14.028,27.75c12.134,17.839,27.351,33.242,43.252,47.713 c15.484,14.09,26.675,31.967,24.737,53.666C742.465,633.622,747.371,633.595,747.65,630.47L747.65,630.47z" fill="#819C79"/></g></g><g><g id="change1_32"><path d="M702.378,720.468c4.299-46.837-70.488-78.167-96.276-111.507c-30.085-39.691-39.541-87.322-59.313-130.983 c52.437,30.96,92.838,80.178,125.503,127.808c23.209,34.135,30.086,60.332,30.086,100.022" fill="#819C79"/></g><g id="change1_28"><path d="M705.476,720.468c1.445-18.216-8.398-33.939-20.326-46.808c-14.101-15.214-31.4-27.211-47.687-39.91 c-7.565-5.899-15.031-11.967-21.839-18.738c-8.554-8.508-15.076-18.871-21.017-29.304 c-14.124-24.802-22.875-52.176-32.772-78.813c-3.82-10.281-7.872-20.476-12.37-30.48c-1.413,1.413-2.826,2.826-4.238,4.238 c42.136,25.067,76.15,61.3,105.421,100.198c13.901,18.473,27.835,37.475,37.086,58.781c9.076,20.902,11.49,43.601,11.548,66.176 c0.01,3.995,6.206,3.996,6.195,0c-0.058-22.529-2.562-44.792-10.951-65.85c-8.866-22.252-23.328-41.831-37.539-60.914 c-30.023-40.315-65.122-77.857-108.633-103.742c-2.887-1.717-5.438,1.57-4.238,4.238c11.675,25.966,19.861,53.308,30.82,79.565 c9.368,22.444,20.872,45.47,38.6,62.527c14.613,14.061,31.692,25.404,47.371,38.204c14.568,11.893,30.418,25.821,36.525,44.218 c1.765,5.317,2.291,10.846,1.85,16.413C698.964,724.453,705.162,724.423,705.476,720.468L705.476,720.468z" fill="#819C79"/></g></g><g><g id="change1_11"><path d="M738.187,653.17c16.651-17.528,41.63-23.901,62.444-35.853c23.313-12.749,39.966-33.463,64.943-46.21 c37.467-17.528,78.264-28.683,117.396-39.836c35.801-10.358,71.603-27.089,106.572-35.853 c-21.647,25.495-53.287,47.804-79.93,67.722c-25.811,19.121-52.454,35.056-82.427,45.413 c-23.314,8.765-44.961,15.138-69.938,17.528c-10.824,0.797-19.983,0.797-29.974-3.187c-6.66-1.594-19.983-7.171-26.644-5.577" fill="#819C79"/></g><g id="change1_25"><path d="M740.346,655.33c18.753-19.263,46.524-25.414,68.771-39.509c11.091-7.028,20.975-15.829,31.174-24.046 c11.491-9.258,23.435-16.703,36.967-22.591c28.699-12.487,58.867-21.357,88.908-29.953c14.938-4.273,29.795-8.588,44.454-13.755 c14.897-5.25,29.628-10.958,44.519-16.225c11.59-4.099,23.299-7.858,35.216-10.888c-0.99-1.702-1.98-3.403-2.972-5.105 c-18.263,21.305-40.731,38.504-63.121,55.206c-22.305,16.637-44.657,32.906-69.661,45.324 c-25.452,12.641-53.767,22.193-81.754,27.148c-14.121,2.5-29.257,4.331-43.103-0.358c-9.061-3.068-20.216-7.986-29.925-6.205 c-3.871,0.71-2.227,6.597,1.623,5.891c5.125-0.94,10.921,1.315,15.752,2.794c5.273,1.614,10.505,3.488,15.833,4.883 c13.354,3.496,28.086,1.138,41.443-1.114c28.013-4.724,56.093-14.715,81.653-27.001c25.668-12.339,48.474-29.146,71.221-46.086 c22.81-16.988,45.764-34.469,64.358-56.161c1.945-2.27,0.13-5.894-2.972-5.105c-30.313,7.708-59.115,20.171-88.676,30.209 c-29.265,9.938-59.421,17.031-88.702,26.978c-14.327,4.867-28.451,10.324-42.269,16.494 c-12.623,5.637-23.658,13.685-34.377,22.32c-10.665,8.592-20.994,17.57-32.796,24.607c-11.374,6.782-23.692,11.723-35.606,17.435 c-11.07,5.307-21.664,11.646-30.278,20.495C733.279,653.833,737.595,658.156,740.346,655.33L740.346,655.33z" fill="#819C79"/></g></g><g><g id="change1_10"><path d="M692.346,741.184c22.479-15.935,52.501-17.104,76.646-28.259c29.974-15.138,54.12-36.65,85.758-50.194 c41.63-17.528,85.758-29.479,129.885-41.43c24.146-7.17,47.458-15.138,70.772-23.902c14.153-6.373,29.14-15.138,44.126-18.324 c-53.286,61.348-126.555,97.201-204.818,120.306c-27.477,8.765-56.616,15.936-84.925,20.716 c-16.651,3.187-43.126,7.671-59.778-0.297" fill="#819C79"/></g><g id="change1_16"><path d="M693.888,743.821c22.41-15.5,50.665-16.992,75.219-27.614c12.902-5.581,24.864-14.027,36.586-21.695 c11.91-7.79,23.796-15.609,36.362-22.317c27.53-14.695,58.609-23.77,88.414-32.607c30.543-9.057,61.387-16.774,91.58-27.002 c13.283-4.499,26.953-8.763,39.647-14.752c12.616-5.952,24.935-12.712,38.648-15.814c-0.99-1.702-1.98-3.403-2.972-5.105 c-35.479,40.632-80.639,70.68-129.623,92.66c-52.739,23.666-109.634,39.084-166.452,48.981 c-15.777,2.748-34.638,5.473-49.744-1.395c-3.558-1.616-6.665,3.646-3.084,5.275c22.039,10.018,48.718,3.139,71.39-1.038 c30.455-5.61,60.202-14.032,89.697-23.373c50.662-16.044,99.839-38.34,142.387-70.499c18.118-13.694,34.812-29.186,49.75-46.293 c2.014-2.307,0.094-5.798-2.972-5.105c-14.189,3.209-27.08,10.206-40.108,16.43c-14.423,6.891-30.286,11.531-45.436,16.569 c-30.207,10.045-61.142,17.548-91.605,26.745c-29.057,8.772-58.889,18.145-85.647,32.688 c-12.481,6.784-24.271,14.773-36.154,22.531c-11.906,7.772-24.11,16.063-37.374,21.339 c-23.708,9.433-50.135,11.274-71.593,26.114C687.588,740.771,690.638,746.068,693.888,743.821L693.888,743.821z" fill="#819C79"/></g></g><g><g id="change1_5"><path d="M653.296,820.882c3.026-56.64-42.368-63.176-74.647-98.03c-20.175-20.694-31.271-46.836-43.376-72.978 c-12.105-26.141-32.28-45.747-45.394-70.8c45.394,31.588,90.788,49.015,124.077,98.031c11.096,16.338,22.192,40.3,28.245,59.907 c5.044,14.16,1.151,40.052,7.203,54.212" fill="#819C79"/></g><g id="change1_14"><path d="M655.916,820.882c0.936-20.333-4.708-38.677-18.927-53.461c-13.386-13.918-30.796-23.359-45.432-35.836 c-20.974-17.879-34.473-41.205-46.073-65.838c-6.106-12.966-11.815-25.847-19.684-37.88 c-7.646-11.691-16.355-22.646-24.141-34.244c-3.442-5.127-6.623-10.418-9.52-15.872c-1.195,1.195-2.39,2.39-3.585,3.585 c38.35,26.569,81.578,46.414,112.255,82.671c16.321,19.29,27.911,42.478,36.366,66.167c3.676,10.3,5.045,20.044,5.503,30.941 c0.431,10.221,0.322,21.165,4.196,30.804c1.244,3.096,6.315,1.745,5.054-1.393c-4.074-10.138-3.659-21.656-4.138-32.394 c-0.488-10.947-2.431-20.581-6.112-30.896c-8.432-23.623-20.226-46.192-36.104-65.661 c-30.611-37.535-75.353-57.731-114.375-84.766c-2.289-1.586-4.736,1.42-3.585,3.585c13.204,24.852,33.351,45.257,45.394,70.8 c12.002,25.455,23.114,51.422,42.586,72.259c13.994,14.975,31.151,25.573,47.094,38.21c15.946,12.64,26.601,28.148,27.986,48.902 c0.229,3.433,0.157,6.88,0,10.313C650.52,824.262,655.762,824.247,655.916,820.882L655.916,820.882z" fill="#819C79"/></g></g><g><g id="change1_30"><path d="M638.274,872.271c27.476-17.927,51.205-31.072,74.934-51.39c28.726-23.902,64.942-39.438,101.161-50.193 c37.467-10.756,74.935-19.122,112.4-28.683c36.219-10.756,69.938-33.463,106.157-41.829 c-17.485,29.878-61.196,53.779-89.922,74.097c-31.222,21.512-67.44,39.438-104.906,50.193 c-28.725,8.366-58.699,8.366-87.424,14.341c-22.479,5.977-49.352,8.744-71.831,7.549" fill="#819C79"/></g><g id="change1_20"><path d="M639.816,874.909c24.129-15.705,49.096-30.156,71.444-48.421c23.061-18.846,48.209-32.962,76.063-43.53 c29.385-11.15,60.26-18.267,90.728-25.757c15.88-3.903,31.775-7.745,47.627-11.765c13.93-3.533,27.312-9.628,40.364-15.535 c22.128-10.014,43.927-21.139,67.697-26.779c-1.149-1.496-2.299-2.991-3.449-4.487c-12.812,21.438-34.653,36.501-54.924,50.248 c-21.994,14.916-43.87,30.418-67.176,43.225c-26.712,14.679-55.755,26.79-85.667,33.03c-15.753,3.286-31.836,4.694-47.778,6.726 c-14.649,1.867-28.792,5.422-43.29,8.021c-17.3,3.101-35.057,4.273-52.61,3.417c-3.939-0.191-3.921,5.918,0,6.109 c14.354,0.699,28.712-0.084,42.958-1.919c14.385-1.854,28.296-5.794,42.595-8.059c15.511-2.457,31.182-3.764,46.711-6.102 c15.396-2.318,30.288-6.306,44.993-11.38c28.035-9.674,54.773-23.117,79.675-39.179c21.254-13.709,42.764-27.745,62.911-43.037 c14.059-10.67,27.736-22.722,36.878-38.018c1.419-2.376-0.898-5.092-3.449-4.487c-28.315,6.719-53.957,21.021-80.521,32.414 c-29.378,12.601-61.422,18.175-92.315,25.917c-29.526,7.399-59.139,14.982-87.201,26.964 c-13.243,5.653-26.08,12.14-38.307,19.759c-12.296,7.663-22.994,17.136-34.445,25.927c-19.86,15.245-41.64,27.784-62.593,41.422 C633.446,871.773,636.504,877.064,639.816,874.909L639.816,874.909z" fill="#819C79"/></g></g><g><g id="change1_8"><path d="M614.545,924.854c-5.519-28.937-22.076-42.87-46.36-55.73c-23.181-12.862-46.361-35.369-62.918-54.66 c-41.945-49.302-65.126-113.608-117.006-154.335c65.125,7.502,113.694,64.306,149.017,110.393 c15.453,22.506,35.322,45.014,47.464,69.664c7.727,13.933,10.583,49.947,21.622,61.736" fill="#819C79"/></g><g id="change1_9"><path d="M617.167,924.132c-4.392-22.048-16.851-38.368-35.56-50.413c-11.402-7.34-23.238-13.325-33.976-21.755 c-11.435-8.977-21.93-19.148-31.831-29.772c-35.938-38.565-57.727-87.347-90.369-128.407 c-10.42-13.106-22.114-25.174-35.247-35.578c-0.641,1.547-1.282,3.095-1.923,4.642c51.021,6.186,91.226,42.551,123.341,80.032 c17.234,20.112,32.659,41.691,48.301,63.042c8.539,11.654,16.093,23.653,22.893,36.39c4.561,8.543,6.122,19.029,8.413,28.338 c2.75,11.17,5.333,24.345,13.231,33.195c2.34,2.622,6.172-1.238,3.846-3.846c-6.365-7.132-8.554-17.95-10.866-26.938 c-2.532-9.84-4.433-19.957-8.126-29.453c-4.611-11.854-12.26-22.829-19.501-33.192c-8.448-12.09-17.616-23.659-26.218-35.639 C515.739,736.011,482.488,697.151,440,674.081c-16.083-8.732-33.569-14.469-51.738-16.671c-2.282-0.277-3.713,3.224-1.923,4.642 c41.83,33.137,65.4,81.808,94.874,125.048c15.233,22.349,32.815,42.854,53.093,60.79c10.351,9.155,21.56,17.743,33.778,24.26 c9.855,5.258,19.317,11.326,27.134,19.376c9.106,9.375,14.18,21.377,16.705,34.052 C612.608,929.016,617.85,927.556,617.167,924.132L617.167,924.132z" fill="#819C79"/></g></g><g><g id="change1_27"><path d="M593.481,1008.208c23.729-21.511,54.785-29.573,77.265-51.085c26.227-23.902,49.956-41.829,83.676-57.364 c73.685-37.048,154.863-57.365,227.3-95.607c-53.703,52.583-112.4,109.948-186.086,138.63 c-44.961,16.731-88.672,16.731-136.13,23.902" fill="#819C79"/></g><g id="change1_3"><path d="M595.641,1010.368c20.473-18.261,47.087-27.012,68.625-43.719c10.801-8.379,20.501-18.169,31.157-26.762 c10.573-8.526,21.738-16.293,33.393-23.269c25.689-15.378,53.869-27.348,81.56-38.591c28.276-11.48,57.013-21.781,85.491-32.738 c29.722-11.437,59.187-23.673,87.397-38.501c-1.234-1.6-2.468-3.198-3.701-4.798c-39.507,38.682-79.45,77.538-126.147,107.582 c-24.218,15.58-50.262,28.739-78.051,36.549c-29.324,8.241-59.84,10.665-89.981,14.125c-8.914,1.023-17.814,2.166-26.688,3.491 c-3.886,0.58-2.229,6.466,1.623,5.891c29.999-4.479,60.347-6.32,90.225-11.648c28.815-5.138,55.77-14.96,81.541-28.742 c48.683-26.034,90.284-63.421,129.792-101.491c7.374-7.106,14.689-14.271,22.006-21.436c2.55-2.496-0.684-6.384-3.701-4.798 c-54.307,28.547-112.967,47.101-169.73,69.938c-27.343,11.001-54.799,22.868-80.466,37.416 c-23.373,13.247-43.979,30.308-63.794,48.312c-22.227,20.193-52.389,28.819-74.868,48.868 C588.376,1008.676,592.712,1012.98,595.641,1010.368L595.641,1010.368z" fill="#819C79"/></g></g><g><g id="change1_4"><path d="M584.572,1038.39c-9.678-29.781-16.129-50.088-46.776-67.687c-32.26-18.952-64.52-35.196-87.101-62.271 c-27.421-29.781-46.777-62.271-67.746-94.761c-20.969-28.429-41.938-50.088-66.132-74.455 c61.293,44.673,133.878,64.979,182.267,125.896c17.743,23.014,37.099,47.381,50.002,73.101 c8.065,17.598,10.128,45.27,19.806,61.515" fill="#819C79"/></g><g id="change1_7"><path d="M588.134,1037.407c-6.454-19.86-13.018-39.74-28.154-54.831c-8.932-8.905-20.064-14.96-30.892-21.202 c-12.328-7.107-24.693-14.157-36.607-21.95c-24.908-16.291-44.456-37.8-62.235-61.486c-18.155-24.188-32.396-51.152-50.85-75.047 c-18.254-23.635-38.956-45.117-59.966-66.286c-1.492,1.935-2.984,3.868-4.477,5.802c42.047,30.49,90.621,50.271,133.017,80.192 c10.713,7.562,20.848,15.903,30.279,25.014c10.22,9.872,18.893,20.945,27.536,32.184c17.27,22.456,37.064,46.469,44.875,74.151 c4.496,15.934,6.662,33.1,15.042,47.646c2.377,4.126,8.763,0.407,6.38-3.729c-6.229-10.813-8.693-23.451-11.617-35.449 c-3.071-12.604-6.843-24.106-13.205-35.453c-7.409-13.214-16.17-25.645-25.18-37.804c-8.563-11.555-17.174-23.245-26.6-34.115 c-34.104-39.33-81.58-62.371-126.209-87.346c-17.374-9.722-34.461-19.975-50.589-31.67c-3.478-2.522-7.354,2.903-4.477,5.802 c20.998,21.156,41.692,42.625,59.936,66.248c9.246,11.971,16.881,25.149,25.1,37.836c8.202,12.659,16.665,25.148,25.722,37.215 c17.137,22.83,36.011,43.666,59.625,59.887c11.676,8.021,23.993,15.077,36.259,22.142c11.426,6.58,23.269,12.691,32.979,21.748 c14.951,13.944,21.049,33.59,27.184,52.468C582.476,1043.883,589.611,1041.952,588.134,1037.407L588.134,1037.407z" fill="#819C79"/></g></g><g><g id="change1_12"><path d="M823.109,455.908c3.33-15.935-5.828-36.65-17.484-45.414c-16.652-12.748-27.477-29.479-38.3-47.007 c-13.322-20.715-20.814-40.634-29.973-63.739c-9.991-23.902-24.978-46.21-34.97-69.316c16.652,3.188,34.97,23.106,48.29,33.463 c18.318,14.341,33.305,33.463,39.964,54.975c9.992,31.073,8.328,65.333,20.816,95.607" fill="#819C79"/></g><g id="change1_23"><path d="M826.055,456.72c3.202-17.23-4.443-37.534-18.27-48.386c-17.854-14.011-30.01-33.205-41.563-52.433 c-11.916-19.834-19.054-41.648-28.394-62.675c-9.782-22.024-23.142-42.25-32.809-64.335c-1.15,1.496-2.3,2.991-3.449,4.487 c16.073,3.458,28.807,17.247,40.794,27.599c6.542,5.649,13.365,10.828,19.469,16.983c6.634,6.69,12.362,14.197,17.186,22.283 c20.696,34.7,14.632,78.194,29.488,115.047c1.453,3.605,7.364,2.032,5.891-1.624c-15.335-38.038-9.49-81.943-30.921-117.875 c-9.752-16.35-23.694-27.822-37.871-40.065c-12.465-10.764-25.701-24.643-42.412-28.238c-2.799-0.602-4.521,2.038-3.449,4.487 c9.182,20.974,21.534,40.349,31.298,61.039c9.596,20.334,16.312,41.722,27.294,61.455c9.975,17.924,21.547,36.129,36.264,50.544 c7.027,6.883,14.521,11.694,19.567,20.405c5.058,8.731,7.861,19.647,5.996,29.679C819.448,458.946,825.335,460.59,826.055,456.72 L826.055,456.72z" fill="#819C79"/></g></g></g></svg>